<svg width="200" height="200" viewBox="0 0 200 200" fill="none" xmlns="http://www.w3.org/2000/svg">
<path d="M102.333 185.667C148.357 185.667 185.667 148.357 185.667 102.333C185.667 56.3096 148.357 19 102.333 19C56.3096 19 19 56.3096 19 102.333C19 148.357 56.3096 185.667 102.333 185.667Z" stroke="black" stroke-width="2" stroke-linecap="round" stroke-linejoin="round"/>
<path d="M103 57.1667V148.833" stroke="black" stroke-width="2" stroke-linecap="round" stroke-linejoin="round"/>
<path d="M123.833 73.8333H92.5833C88.7156 73.8333 85.0063 75.3698 82.2714 78.1047C79.5365 80.8396 78 84.5489 78 88.4167C78 92.2844 79.5365 95.9937 82.2714 98.7286C85.0063 101.464 88.7156 103 92.5833 103H113.417C117.284 103 120.994 104.536 123.729 107.271C126.464 110.006 128 113.716 128 117.583C128 121.451 126.464 125.16 123.729 127.895C120.994 130.63 117.284 132.167 113.417 132.167H78" stroke="black" stroke-width="2" stroke-linecap="round" stroke-linejoin="round"/>
<path d="M147 134L133 148" stroke="black" stroke-width="2" stroke-linecap="round" stroke-linejoin="round"/>
<path d="M134.5 138C135.881 138 137 136.881 137 135.5C137 134.119 135.881 133 134.5 133C133.119 133 132 134.119 132 135.5C132 136.881 133.119 138 134.5 138Z" stroke="black" stroke-width="2" stroke-linecap="round" stroke-linejoin="round"/>
<path d="M145.5 149C146.881 149 148 147.881 148 146.5C148 145.119 146.881 144 145.5 144C144.119 144 143 145.119 143 146.5C143 147.881 144.119 149 145.5 149Z" stroke="black" stroke-width="2" stroke-linecap="round" stroke-linejoin="round"/>
</svg>
