<svg xmlns="http://www.w3.org/2000/svg" viewBox="0 0 261.44 154.82"><defs><style>.cls-1{fill:#5951a2;}.cls-2{fill:#4c5252;}</style></defs><g id="Layer_2" data-name="Layer 2"><g id="Layer_1-2" data-name="Layer 1"><polygon class="cls-1" points="261.44 52.02 188.91 52.63 206.51 71.32 106.63 131.52 90.2 107.3 0 154.81 81.77 123.25 100.81 154.81 218.4 92.23 225.7 115.14 261.44 52.02"/><polygon class="cls-1" points="79.49 108.43 91.5 102.11 97.99 111.67 97.99 23.85 79.49 23.85 79.49 108.43"/><polygon class="cls-2" points="52.28 122.76 70.78 113.02 70.78 46.71 52.28 46.71 52.28 122.76"/><polygon class="cls-2" points="106.69 124.5 107.81 126.15 125.19 115.67 125.19 48.34 106.69 48.34 106.69 124.5"/><polygon class="cls-2" points="161.1 0 161.1 94.03 179.6 82.88 179.6 0 161.1 0"/><polygon class="cls-1" points="133.9 110.43 152.4 99.28 152.4 27.2 133.9 27.2 133.9 110.43"/></g></g></svg>