<svg width="4354" height="2494" viewBox="0 0 4354 2494" fill="none" xmlns="http://www.w3.org/2000/svg">
<g id="Illustration 15">
<g id="Background">
<g id="Background Object / Table / 1">
<g id="Group 23">
<path id="Fill 1" fill-rule="evenodd" clip-rule="evenodd" d="M3027.29 1855.35H3056.67V1266.84H3027.29V1855.35Z" fill="#DCEEFF"/>
<path id="Fill 2" fill-rule="evenodd" clip-rule="evenodd" d="M2997.9 1855.35H3027.29V1266.84H2997.9V1855.35Z" fill="#B6D4FF"/>
<path id="Fill 3" fill-rule="evenodd" clip-rule="evenodd" d="M3258.08 1855.35H3287.46V1266.84H3258.08V1855.35Z" fill="#DCEEFF"/>
<path id="Fill 4" fill-rule="evenodd" clip-rule="evenodd" d="M3228.69 1855.35H3258.08V1266.84H3228.69V1855.35Z" fill="#B6D4FF"/>
<path id="Fill 5" fill-rule="evenodd" clip-rule="evenodd" d="M3027.29 1514.1H3258.08V1266.84H3027.29V1514.1Z" fill="#DCEEFF"/>
<path id="Fill 6" fill-rule="evenodd" clip-rule="evenodd" d="M2919.2 1266.84H3690.48V1227.69H2919.2V1266.84Z" fill="#B6D4FF"/>
<path id="Fill 7" fill-rule="evenodd" clip-rule="evenodd" d="M3632.91 1266.84H3943.48V1227.69H3632.91V1266.84Z" fill="#DCEEFF"/>
<path id="Fill 8" fill-rule="evenodd" clip-rule="evenodd" d="M3834.77 1855.35H3866.19V1266.84H3834.77V1855.35Z" fill="#DCEEFF"/>
<path id="Fill 9" fill-rule="evenodd" clip-rule="evenodd" d="M3803.35 1855.35H3834.77V1266.84H3803.35V1855.35Z" fill="#B6D4FF"/>
<path id="Fill 10" fill-rule="evenodd" clip-rule="evenodd" d="M3587.04 1855.35H3618.46V1266.84H3587.04V1855.35Z" fill="#DCEEFF"/>
<path id="Fill 11" fill-rule="evenodd" clip-rule="evenodd" d="M3587.04 1565.64H3834.77V1267.01H3587.04V1565.64Z" fill="#DCEEFF"/>
<path id="Fill 12" fill-rule="evenodd" clip-rule="evenodd" d="M3350.32 1565.5H3555.62V1266.87H3350.32V1565.5Z" fill="#B6D4FF"/>
<path id="Fill 13" fill-rule="evenodd" clip-rule="evenodd" d="M3555.62 1855.35H3587.04V1266.84H3555.62V1855.35Z" fill="#B6D4FF"/>
<path id="Fill 14" fill-rule="evenodd" clip-rule="evenodd" d="M3555.62 1319.16H3866.19V1266.84H3555.62V1319.16Z" fill="#B6D4FF"/>
<path id="Fill 15" fill-rule="evenodd" clip-rule="evenodd" d="M2997.9 1319.16H3287.46V1266.84H2997.9V1319.16Z" fill="#B6D4FF"/>
<path id="Fill 16" fill-rule="evenodd" clip-rule="evenodd" d="M3383.48 1398.8H3522.45V1295.3H3383.48V1398.8Z" fill="#DCEEFF"/>
<path id="Fill 17" fill-rule="evenodd" clip-rule="evenodd" d="M3383.48 1530H3522.45V1426.5H3383.48V1530Z" fill="#DCEEFF"/>
<g id="Group 22">
<path id="Fill 18" fill-rule="evenodd" clip-rule="evenodd" d="M3474.73 1347.06C3474.73 1359.31 3464.99 1369.25 3452.97 1369.25C3440.95 1369.25 3431.2 1359.31 3431.2 1347.06C3431.2 1334.8 3440.95 1324.86 3452.97 1324.86C3464.99 1324.86 3474.73 1334.8 3474.73 1347.06Z" fill="#B6D4FF"/>
<path id="Fill 20" fill-rule="evenodd" clip-rule="evenodd" d="M3474.73 1478.25C3474.73 1490.5 3464.99 1500.44 3452.97 1500.44C3440.95 1500.44 3431.2 1490.5 3431.2 1478.25C3431.2 1465.99 3440.95 1456.05 3452.97 1456.05C3464.99 1456.05 3474.73 1465.99 3474.73 1478.25Z" fill="#B6D4FF"/>
</g>
</g>
</g>
<g id="Background Object / Sofa / 3">
<g id="Group 20">
<path id="Fill 1_2" fill-rule="evenodd" clip-rule="evenodd" d="M1857.77 1660.69H954.774V1446.81H1857.77V1660.69Z" fill="#B6D4FF"/>
<path id="Fill 2_2" fill-rule="evenodd" clip-rule="evenodd" d="M1604.44 1492.07H953.42C919.536 1492.07 891.257 1466.2 888.254 1432.44L867.894 1203.62C864.489 1165.35 894.641 1132.4 933.062 1132.4H1584.08C1617.97 1132.4 1646.25 1158.27 1649.25 1192.03L1669.61 1420.85C1673.01 1459.12 1642.86 1492.07 1604.44 1492.07Z" fill="#B6D4FF"/>
<path id="Fill 4_2" fill-rule="evenodd" clip-rule="evenodd" d="M2140.28 1764.6H1886.9C1849.43 1764.6 1819.98 1732.51 1823.2 1695.17L1844.18 1451.89C1847.03 1418.83 1874.7 1393.44 1907.88 1393.44H2161.26C2198.74 1393.44 2228.18 1425.53 2224.96 1462.87L2203.98 1706.15C2201.13 1739.21 2173.47 1764.6 2140.28 1764.6Z" fill="#B6D4FF"/>
<path id="Fill 7_2" fill-rule="evenodd" clip-rule="evenodd" d="M1800.31 1492.07H1077.07C1043.18 1492.07 1014.9 1466.2 1011.9 1432.44L991.541 1203.62C988.137 1165.35 1018.29 1132.4 1056.71 1132.4H1779.95C1813.84 1132.4 1842.12 1158.27 1845.12 1192.03L1865.48 1420.85C1868.88 1459.12 1838.73 1492.07 1800.31 1492.07Z" fill="#DCEEFF"/>
<path id="Fill 9_2" fill-rule="evenodd" clip-rule="evenodd" d="M2113.53 1764.6H1009.15V1652.6H2113.53V1764.6Z" fill="#CCE3FF"/>
<path id="Fill 11_2" fill-rule="evenodd" clip-rule="evenodd" d="M1962.75 1652.6H1185.74C1147.15 1652.6 1115.87 1621.31 1115.87 1582.72C1115.87 1544.13 1147.15 1512.85 1185.74 1512.85H1962.75C2001.34 1512.85 2032.63 1544.13 2032.63 1582.72C2032.63 1621.31 2001.34 1652.6 1962.75 1652.6Z" fill="#DCEEFF"/>
<path id="Fill 12_2" fill-rule="evenodd" clip-rule="evenodd" d="M799.273 1855.35H772.771L783.971 1764.6H832.873L799.273 1855.35Z" fill="#B6D4FF"/>
<path id="Fill 13_2" fill-rule="evenodd" clip-rule="evenodd" d="M1027.05 1855.35H1000.55L1011.75 1764.6H1060.65L1027.05 1855.35Z" fill="#B6D4FF"/>
<path id="Fill 14_2" fill-rule="evenodd" clip-rule="evenodd" d="M2109.35 1855.35H2135.85L2124.65 1764.6H2075.75L2109.35 1855.35Z" fill="#B6D4FF"/>
<path id="Fill 15_2" fill-rule="evenodd" clip-rule="evenodd" d="M1881.57 1855.35H1908.07L1896.87 1764.6H1847.97L1881.57 1855.35Z" fill="#B6D4FF"/>
<path id="Fill 16_2" fill-rule="evenodd" clip-rule="evenodd" d="M2140.28 1764.6H2102.32C2064.84 1764.6 2035.39 1732.51 2038.61 1695.17L2059.59 1451.89C2062.44 1418.83 2090.11 1393.44 2123.29 1393.44H2161.26C2198.74 1393.44 2228.18 1425.53 2224.96 1462.87L2203.98 1706.15C2201.13 1739.21 2173.47 1764.6 2140.28 1764.6Z" fill="#CCE3FF"/>
<path id="Fill 17_2" fill-rule="evenodd" clip-rule="evenodd" d="M1046.18 1764.6H760.802C727.618 1764.6 699.95 1739.21 697.1 1706.15L676.126 1462.87C672.905 1425.53 702.346 1393.44 739.826 1393.44H1025.21C1058.39 1393.44 1086.06 1418.83 1088.91 1451.89L1109.88 1695.17C1113.1 1732.51 1083.66 1764.6 1046.18 1764.6Z" fill="#B6D4FF"/>
<path id="Fill 18_2" fill-rule="evenodd" clip-rule="evenodd" d="M1046.18 1764.6H1008.21C975.028 1764.6 947.359 1739.21 944.51 1706.15L923.535 1462.87C920.316 1425.53 949.758 1393.44 987.238 1393.44H1025.21C1058.39 1393.44 1086.06 1418.83 1088.91 1451.89L1109.88 1695.17C1113.1 1732.51 1083.66 1764.6 1046.18 1764.6Z" fill="#CCE3FF"/>
</g>
</g>
<g id="Background Object / Pluteus / 3">
<g id="Group 29">
<path id="Fill 1_3" fill-rule="evenodd" clip-rule="evenodd" d="M3482.85 566.661H3637.23L3658.08 358.4H3503.7L3482.85 566.661Z" fill="#DCEEFF"/>
<path id="Stroke 2" fill-rule="evenodd" clip-rule="evenodd" d="M3482.85 566.661H3637.23L3658.08 358.4H3503.7L3482.85 566.661Z" stroke="#DCEEFF" stroke-width="5"/>
<path id="Fill 4_3" fill-rule="evenodd" clip-rule="evenodd" d="M3474.52 566.661H3631.77L3652.62 358.4H3495.36L3474.52 566.661Z" fill="white"/>
<path id="Stroke 5" fill-rule="evenodd" clip-rule="evenodd" d="M3474.52 566.661H3631.77L3652.62 358.4H3495.36L3474.52 566.661Z" stroke="#DCEEFF" stroke-width="5"/>
<path id="Fill 7_3" fill-rule="evenodd" clip-rule="evenodd" d="M3504.63 539.162H3607.15L3622.5 385.898H3519.98L3504.63 539.162Z" fill="#DCEEFF"/>
<path id="Fill 8_2" fill-rule="evenodd" clip-rule="evenodd" d="M3890.57 420.342L3876.12 564.631H3686.42L3700.87 420.342H3890.57Z" fill="#DCEEFF"/>
<path id="Stroke 9" fill-rule="evenodd" clip-rule="evenodd" d="M3890.57 420.342L3876.12 564.631H3686.42L3700.87 420.342H3890.57Z" stroke="#DCEEFF" stroke-width="5"/>
<path id="Fill 10_2" fill-rule="evenodd" clip-rule="evenodd" d="M3886.33 420.342L3871.88 564.631H3678.65L3693.09 420.342H3886.33Z" fill="white"/>
<path id="Stroke 11" fill-rule="evenodd" clip-rule="evenodd" d="M3886.33 420.342L3871.88 564.631H3678.65L3693.09 420.342H3886.33Z" stroke="#DCEEFF" stroke-width="5"/>
<path id="Fill 12_3" fill-rule="evenodd" clip-rule="evenodd" d="M3845.58 448.646L3836.8 536.323H3719.39L3728.17 448.646H3845.58Z" fill="#CCE3FF"/>
<path id="Fill 13_3" fill-rule="evenodd" clip-rule="evenodd" d="M3249.28 510.701C3249.28 521.746 3258.24 530.701 3269.28 530.701H3449.24V490.699H3269.28C3258.24 490.699 3249.28 499.654 3249.28 510.701Z" fill="#CCE3FF"/>
<path id="Fill 15_3" fill-rule="evenodd" clip-rule="evenodd" d="M3370.32 510.7C3370.32 517.094 3375.5 522.278 3381.89 522.278H3448.75C3449.02 522.278 3449.23 522.063 3449.23 521.798V499.601C3449.23 499.335 3449.02 499.121 3448.75 499.121H3381.89C3375.5 499.121 3370.32 504.305 3370.32 510.7Z" fill="#DCEEFF"/>
<path id="Fill 17_3" fill-rule="evenodd" clip-rule="evenodd" d="M3224.17 530.701V570.703H3420.58C3431.63 570.703 3440.58 561.748 3440.58 550.703C3440.58 539.656 3431.63 530.701 3420.58 530.701H3224.17Z" fill="#CCE3FF"/>
<path id="Fill 19" fill-rule="evenodd" clip-rule="evenodd" d="M3224.17 539.234V562.169H3304.92C3311.26 562.169 3316.39 557.034 3316.39 550.702C3316.39 544.367 3311.26 539.234 3304.92 539.234H3224.17Z" fill="#DCEEFF"/>
<path id="Fill 21" fill-rule="evenodd" clip-rule="evenodd" d="M3160.4 597.275H3837.48V568.832H3160.4V597.275Z" fill="#DCEEFF"/>
<path id="Fill 23" fill-rule="evenodd" clip-rule="evenodd" d="M3837.48 597.275H3948.87V568.832H3837.48V597.275Z" fill="#CCE3FF"/>
<path id="Fill 24" fill-rule="evenodd" clip-rule="evenodd" d="M3325.42 597.275L3378.3 680.229V597.275H3325.42Z" fill="#B6D4FF"/>
<path id="Fill 25" fill-rule="evenodd" clip-rule="evenodd" d="M3296.16 597.275L3349.04 680.229H3378.3L3325.43 597.275H3296.16Z" fill="#CCE3FF"/>
<path id="Fill 26" fill-rule="evenodd" clip-rule="evenodd" d="M3713.23 597.275L3766.1 680.229V597.275H3713.23Z" fill="#B6D4FF"/>
<path id="Fill 27" fill-rule="evenodd" clip-rule="evenodd" d="M3683.97 597.275L3736.84 680.229H3766.1L3713.23 597.275H3683.97Z" fill="#CCE3FF"/>
</g>
</g>
<g id="Background Object / Bedside-table / 1">
<g id="Group 20_2">
<path id="Fill 1_4" fill-rule="evenodd" clip-rule="evenodd" d="M719.888 1862.16H690.18V1693.61H719.888V1862.16Z" fill="#DCEEFF"/>
<path id="Fill 2_3" fill-rule="evenodd" clip-rule="evenodd" d="M472.443 1862.16H442.735V1693.61H472.443V1862.16Z" fill="#DCEEFF"/>
<path id="Fill 3_2" fill-rule="evenodd" clip-rule="evenodd" d="M615.153 1862.16H585.445V1693.61H615.153V1862.16Z" fill="#B6D4FF"/>
<path id="Fill 4_4" fill-rule="evenodd" clip-rule="evenodd" d="M367.709 1862.16H338.003V1693.61H367.709V1862.16Z" fill="#B6D4FF"/>
<path id="Fill 5_2" fill-rule="evenodd" clip-rule="evenodd" d="M614.693 1723.51H337.543V1385.09H614.693V1723.51Z" fill="#B6D4FF"/>
<path id="Fill 6_2" fill-rule="evenodd" clip-rule="evenodd" d="M719.888 1723.51H442.736V1385.09H719.888V1723.51Z" fill="#DCEEFF"/>
<path id="Fill 7_4" fill-rule="evenodd" clip-rule="evenodd" d="M694.174 1679.7H468.45V1428.9H694.174V1679.7Z" fill="#ECF6FF"/>
<path id="Fill 8_3" fill-rule="evenodd" clip-rule="evenodd" d="M542.413 1428.9C542.413 1446.73 550.691 1461.19 560.902 1461.19H601.724C611.934 1461.19 620.211 1446.73 620.211 1428.9H542.413Z" fill="#CCE3FF"/>
<path id="Fill 10_3" fill-rule="evenodd" clip-rule="evenodd" d="M457.868 1385.7H400.224V1241.31H457.868V1385.7Z" fill="#CCE3FF"/>
<path id="Fill 12_4" fill-rule="evenodd" clip-rule="evenodd" d="M419.808 1385.7H511.837L477.096 1167.91H385.067L419.808 1385.7Z" fill="#DCEEFF"/>
<path id="Fill 13_4" fill-rule="evenodd" clip-rule="evenodd" d="M438.84 1385.7H530.87L496.129 1167.91H404.1L438.84 1385.7Z" fill="#ECF6FF"/>
<path id="Fill 14_3" fill-rule="evenodd" clip-rule="evenodd" d="M450.41 1352.1H508.578L484.559 1201.52H426.392L450.41 1352.1Z" fill="#CCE3FF"/>
<path id="Fill 15_4" fill-rule="evenodd" clip-rule="evenodd" d="M585.925 1385.7H545.158V1283.58H585.925V1385.7Z" fill="#CCE3FF"/>
<path id="Fill 16_3" fill-rule="evenodd" clip-rule="evenodd" d="M562.366 1385.7H627.452L602.881 1231.68H537.797L562.366 1385.7Z" fill="#DCEEFF"/>
<path id="Fill 17_4" fill-rule="evenodd" clip-rule="evenodd" d="M575.827 1385.7H640.913L616.342 1231.68H551.258L575.827 1385.7Z" fill="#ECF6FF"/>
<path id="Fill 18_3" fill-rule="evenodd" clip-rule="evenodd" d="M585.774 1354.15H620.9L606.396 1263.22H571.269L585.774 1354.15Z" fill="#DCEEFF"/>
</g>
</g>
<g id="Background Object / Picture / 5">
<g id="Group 8">
<path id="Fill 1_5" fill-rule="evenodd" clip-rule="evenodd" d="M1955.94 515.88H2346.1V185H1955.94V515.88Z" fill="#DCEEFF"/>
<path id="Stroke 2_2" fill-rule="evenodd" clip-rule="evenodd" d="M1955.94 515.88H2346.1V185H1955.94V515.88Z" stroke="#DCEEFF" stroke-width="5"/>
<path id="Fill 4_5" fill-rule="evenodd" clip-rule="evenodd" d="M1933 516.323H2323.16V185.443H1933V516.323Z" fill="white"/>
<path id="Stroke 5_2" fill-rule="evenodd" clip-rule="evenodd" d="M1933 516.323H2323.16V185.443H1933V516.323Z" stroke="#DCEEFF" stroke-width="5"/>
<path id="Fill 7_5" fill-rule="evenodd" clip-rule="evenodd" d="M1999.45 447.966H2251.15V252.914H1999.45V447.966Z" fill="#DCEEFF"/>
</g>
</g>
</g>
<g id="Person / Man / 6">
<g id="Man / Head / 1">
<g id="Group 30">
<path id="Fill 1_6" fill-rule="evenodd" clip-rule="evenodd" d="M1583.5 552.151C1583.5 580.823 1565.06 604.065 1542.32 604.065C1519.58 604.065 1501.15 580.823 1501.15 552.151C1501.15 523.479 1519.58 500.236 1542.32 500.236C1565.06 500.236 1583.5 523.479 1583.5 552.151Z" fill="#19141E"/>
<g id="Face color">
<path id="Face" d="M1486.06 757.811L1484.33 698.184C1484.33 698.184 1556.63 703.953 1572.09 695.901C1572.09 695.901 1591 598.298 1568.45 544.248L1568 542.143L1415.43 524.258L1406.88 612C1401.74 596.807 1359.33 579.581 1348.24 601.336C1324.21 648.476 1410.12 680.217 1410.12 680.217L1401.4 758.526" fill="#E576C6"/>
</g>
<path id="Fill 5_3" opacity="0.398926" fill-rule="evenodd" clip-rule="evenodd" d="M1484.33 698.183L1435.58 687.707L1484.1 720.554L1484.33 698.183Z" fill="black"/>
<path id="Fill 7_6" fill-rule="evenodd" clip-rule="evenodd" d="M1523.3 610.885L1540.15 652.161L1519.96 652.419L1523.3 610.885Z" fill="#405FD3"/>
<path id="Fill 9_3" fill-rule="evenodd" clip-rule="evenodd" d="M1505.34 612.474C1506.34 618.032 1502.66 623.353 1497.11 624.357C1491.57 625.363 1486.26 621.671 1485.26 616.115C1484.25 610.556 1487.93 605.235 1493.48 604.229C1499.03 603.225 1504.34 606.915 1505.34 612.474Z" fill="#0D0B6D"/>
<path id="Fill 11_3" fill-rule="evenodd" clip-rule="evenodd" d="M1561.95 612.474C1562.95 618.032 1559.27 623.353 1553.72 624.357C1548.18 625.363 1542.87 621.671 1541.86 616.115C1540.86 610.556 1544.54 605.235 1550.09 604.229C1555.64 603.225 1560.94 606.915 1561.95 612.474Z" fill="#0D0B6D"/>
<path id="Hair" d="M1418.21 626.976C1403.74 602.164 1382.82 594.597 1373.42 592.378C1369.67 581.525 1366.82 568.937 1364.81 555.55C1359.43 519.721 1385.42 487.033 1406.42 477.646C1427.67 468.147 1464.31 454.983 1517.95 472.852C1554.01 484.873 1577.06 456.092 1598.28 468.385C1634.54 489.395 1600.81 581.38 1508.87 558.013C1443.1 541.297 1441.41 545.49 1440.85 557.64C1439.02 596.915 1432.91 620.02 1418.21 626.976Z" fill="#2F2F3D"/>
<g id="Group 21">
<path id="Fill 18_4" fill-rule="evenodd" clip-rule="evenodd" d="M1495.26 653.953C1495.26 653.953 1501.74 665.757 1515.75 665.477L1495.26 653.953Z" fill="white"/>
<path id="Stroke 20" d="M1495.26 653.953C1495.26 653.953 1501.74 665.757 1515.75 665.477" stroke="#252535" stroke-width="4"/>
</g>
<path id="Stroke 22" fill-rule="evenodd" clip-rule="evenodd" d="M1518.41 612.969C1518.41 625.891 1507.96 636.366 1495.06 636.366C1482.17 636.366 1471.72 625.891 1471.72 612.969C1471.72 600.047 1482.17 589.57 1495.06 589.57C1507.96 589.57 1518.41 600.047 1518.41 612.969Z" stroke="#252535" stroke-width="4"/>
<path id="Stroke 24" fill-rule="evenodd" clip-rule="evenodd" d="M1577.2 612.969C1577.2 625.891 1566.75 636.366 1553.85 636.366C1540.96 636.366 1530.5 625.891 1530.5 612.969C1530.5 600.047 1540.96 589.57 1553.85 589.57C1566.75 589.57 1577.2 600.047 1577.2 612.969Z" stroke="#252535" stroke-width="4"/>
<path id="Stroke 26" d="M1528.6 614.053H1518.51" stroke="#252535" stroke-width="4"/>
<path id="Stroke 28" d="M1471.72 612.969H1414.04" stroke="#252535" stroke-width="4"/>
</g>
</g>
<g id="Man / Legs / 1">
<g id="Group 23_2">
<g id="Shoes">
<path id="Shoes_2" fill-rule="evenodd" clip-rule="evenodd" d="M1546.1 2097.93L1546.66 2049.03L1483.66 2017.27L1474.51 2157.07H1692.8C1655.66 2115.2 1546.1 2097.93 1546.1 2097.93ZM1266.47 2099.84L1267.04 2044.91L1225.96 2078.38L1192.91 2096.8L1182 2157.07H1331.41C1312.62 2105.87 1266.47 2099.84 1266.47 2099.84Z" fill="#0D0B6D"/>
</g>
<g id="Leg skin">
<path id="Skin" fill-rule="evenodd" clip-rule="evenodd" d="M1267.04 2044.92L1204.04 2025.97L1192.91 2096.8L1266.47 2099.84L1267.04 2044.92ZM1546.66 2049.03L1483.66 2030.09L1478.58 2094.9L1546.1 2097.93L1546.66 2049.03Z" fill="#E576C6"/>
</g>
<g id="Pants">
<path id="Pants_2" d="M1555.69 2033L1554.24 2078.38H1471.13L1472.59 2032.86C1463.28 2029.13 1456.62 2020.14 1456.4 2009.52L1443.02 1329.73L1298.47 2016.03C1296.43 2025.69 1289.28 2033.18 1280.19 2035.95L1274.76 2078.38H1187.62L1195.12 2031.53C1187.86 2025.9 1183.65 2016.64 1185.1 2006.76L1318.18 1097.15L1438.44 1097.15L1438.44 1096.81H1584.09L1575.36 2008.24C1575.24 2020.23 1566.91 2030.26 1555.69 2033Z" fill="#2F2F3D"/>
</g>
<path id="Fill 15_5" opacity="0.197824" fill-rule="evenodd" clip-rule="evenodd" d="M1442.28 1340.51L1467.78 1227.37L1448.6 1570.38L1442.28 1340.51Z" fill="black"/>
<g id="Pants line">
<path id="Pants line_2" d="M1349.29 1098.01L1363.25 1100.29L1211.03 2027.24L1197.03 2024.9L1349.29 1098.01Z" fill="#EFEFEF"/>
</g>
</g>
</g>
<g id="Man / Body / 5">
<g id="Group 18">
<g id="Skin color">
<path id="Skin_2" fill-rule="evenodd" clip-rule="evenodd" d="M1784.17 785.363L1783.17 768.104C1783.17 768.104 1783.19 756.095 1784.75 743.132C1785.14 739.879 1786 736.478 1786.91 732.846C1789.66 722.001 1792.92 709.097 1785.79 691.954C1776.27 669.088 1799.03 684.875 1804.07 695.751C1806.01 699.955 1806.58 706.309 1807.14 712.611C1807.79 719.9 1808.44 727.121 1811.21 730.864C1815.57 728.498 1818.47 725.416 1818.47 725.416L1867.53 662.149C1869.11 660.022 1872.03 659.386 1874.37 660.638L1877.01 662.07C1879.79 663.581 1880.67 667.12 1878.89 669.705C1875.48 674.671 1869.54 683.047 1863.33 691.803L1863.33 691.804L1863.33 691.809C1852.06 707.696 1839.91 724.829 1840.43 725.098L1841.73 726.669L1899.35 666.265C1901.15 664.257 1904.17 663.899 1906.39 665.43L1909.85 667.816C1912.37 669.546 1912.91 673.005 1911.03 675.391C1904.88 683.28 1889.67 700.363 1877.01 714.585L1877.01 714.586C1866.05 726.891 1857 737.054 1857.39 737.266L1859.11 738.917L1912.75 691.814C1914.65 689.707 1917.89 689.468 1920.09 691.238L1922.71 693.365C1925.01 695.214 1925.35 698.575 1923.47 700.841L1872.81 748.202L1874.27 750.488L1918.25 719.769C1920.27 717.98 1923.31 717.98 1925.35 719.75L1926.57 720.843C1928.73 722.752 1928.97 726.033 1927.09 728.24C1924.09 731.761 1918.17 736.388 1911.1 741.903C1902.97 748.251 1893.34 755.775 1884.93 764.148C1880.29 768.761 1876.56 773.282 1872.77 777.862C1866.59 785.345 1860.27 792.987 1849.71 801.448C1843.4 806.517 1837.69 809.464 1832.25 812.27C1831.49 812.666 1830.72 813.06 1829.97 813.457L1784.17 785.363ZM1388.75 745.766C1388.75 745.766 1422.64 745.7 1447.1 745.619C1471.56 745.535 1502.32 755.817 1502.32 755.817C1502.32 755.817 1518.33 791.757 1462.73 788.502C1407.13 785.243 1388.75 745.766 1388.75 745.766ZM1203.36 891.203C1203.36 891.203 1149.1 972.607 1150.33 1017.88C1151.78 1071.25 1322.47 1202.41 1322.47 1202.41L1366.71 1166.39L1259.25 1016.65L1298.33 933.454L1203.36 891.203Z" fill="#E576C6"/>
</g>
<g id="Sweater color">
<path id="Sweater" d="M1353.86 1101.12L1380.28 1136.56L1300.69 1205.9C1300.69 1205.9 1154.64 1098.91 1150.13 1015.02C1147.25 961.595 1194.02 885.327 1194.02 885.327C1194.02 885.327 1252.73 791.558 1320.59 759.913C1334.51 753.419 1368.28 748.002 1388.75 745.767C1395.02 745.082 1391.27 747.525 1393.42 751.66C1395.67 755.98 1402.52 762.381 1407.26 767.165C1417.12 777.123 1436.56 784.664 1447 786.208C1454.96 787.384 1470.33 789.209 1477.73 788.216C1485.13 787.223 1493.17 783.886 1495.32 781.903C1497.47 779.92 1500.66 777.439 1502.32 773.618C1503.98 769.797 1503.9 770.892 1503.9 767.367C1503.9 763.842 1503.71 764.363 1503.37 762.685C1503.02 761.008 1503.02 759.999 1502.82 759.132C1501.92 755.296 1502.32 755.818 1502.32 755.818C1542.38 767.91 1562.67 772.385 1577.27 789.976L1688.79 868.198L1765.1 768.683L1863.56 834.753C1863.56 834.753 1776.38 997.078 1713.2 1015.02C1662.31 1029.48 1610.75 984.522 1592.62 966.489L1614.16 1075.76C1617.61 1094.63 1601.08 1101.77 1586.36 1101.1L1353.86 1101.12Z" fill="#72A065"/>
</g>
<path id="Fill 9_4" opacity="0.201242" fill-rule="evenodd" clip-rule="evenodd" d="M1592.29 966.554L1578.96 913.906L1614.95 985.856L1592.29 966.554Z" fill="black"/>
<path id="Stroke 16" opacity="0.200591" d="M1343.97 1088.44L1281.82 1000.34L1356.9 886.549" stroke="black" stroke-width="5"/>
</g>
</g>
</g>
<g id="Person / Man / 3">
<g id="Man / Head / 1_2">
<g id="Group 21_2">
<g id="Face color_2">
<path id="Face_2" d="M2648.89 791.689L2650.6 732.965C2650.6 732.965 2578.79 738.647 2563.43 730.717C2563.43 730.717 2546.87 644.222 2567.5 579.286L2719.04 561.672L2729.82 648.265C2734.93 633.302 2774.77 616.157 2785.79 637.583C2809.65 684.01 2724.32 715.27 2724.32 715.27L2732.98 792.396" fill="#5E93D1"/>
</g>
<path id="Fill 4_6" opacity="0.399344" fill-rule="evenodd" clip-rule="evenodd" d="M2650.6 732.966L2699.03 722.648L2650.83 754.998L2650.6 732.966Z" fill="black"/>
<path id="Fill 6_3" fill-rule="evenodd" clip-rule="evenodd" d="M2610.66 637L2593.92 677.652L2613.98 677.906L2610.66 637Z" fill="#2437A8"/>
<path id="Fill 8_4" fill-rule="evenodd" clip-rule="evenodd" d="M2629.74 648.553C2628.74 654.028 2632.4 659.268 2637.91 660.257C2643.42 661.248 2648.69 657.612 2649.69 652.139C2650.68 646.665 2647.02 641.425 2641.52 640.434C2636.01 639.445 2630.73 643.079 2629.74 648.553Z" fill="#0D0B6D"/>
<path id="Fill 10_4" fill-rule="evenodd" clip-rule="evenodd" d="M2577.11 648.553C2576.11 654.028 2579.77 659.268 2585.28 660.257C2590.79 661.248 2596.06 657.612 2597.06 652.139C2598.05 646.665 2594.39 641.425 2588.89 640.434C2583.38 639.445 2578.1 643.079 2577.11 648.553Z" fill="#0D0B6D"/>
<g id="Group 15">
<path id="Fill 12_5" fill-rule="evenodd" clip-rule="evenodd" d="M2631.46 689.416C2631.46 689.416 2624.46 700.71 2610.57 699.753L2631.46 689.416Z" fill="white"/>
<path id="Stroke 14" d="M2631.46 689.416C2631.46 689.416 2624.46 700.71 2610.57 699.753" stroke="#252535" stroke-width="4"/>
</g>
<path id="Hair_2" d="M2758.47 629.757C2765.2 604.89 2789.55 513.102 2786.68 497.432C2783.36 479.272 2770.64 456.979 2705.27 433.596C2649.88 413.786 2618.64 428.131 2609.17 440.337C2594.77 458.91 2567.5 579.288 2567.5 579.288C2567.5 579.288 2590.07 595.247 2670.1 592.494C2670.1 592.494 2659.02 640.369 2704.44 637.619C2704.44 637.619 2699.57 653.741 2721.55 658.812C2733.61 640.179 2749.61 632.649 2758.47 629.757Z" fill="#19141E"/>
</g>
</g>
<g id="Man / Legs / 1_2">
<g id="Group 20_3">
<g id="Shoes_3">
<path id="Shoes_4" fill-rule="evenodd" clip-rule="evenodd" d="M3047.44 1959.93L2986.55 1904.09L3007.7 1847.6L3138 1944.38L3032.45 2128.67C3032.45 2128.67 3029.06 2082.87 3034.58 2032.14C3038.39 1997.09 3047.44 1959.93 3047.44 1959.93ZM2460.8 2081.93L2474.7 2037.1L2533.57 2040.21L2484.57 2163.34L2296.37 2054.28C2352.22 2037.37 2460.8 2081.93 2460.8 2081.93Z" fill="#0D0B6D"/>
</g>
<g id="Skin legs">
<path id="Skin_3" fill-rule="evenodd" clip-rule="evenodd" d="M3001.9 1918.32L3008.6 1847.55L3083.59 1904.32L3047.44 1959.94L3001.9 1918.32ZM2472.25 2044.68L2530.45 2049.92L2508.97 2102.03L2460.79 2081.93L2472.25 2044.68Z" fill="#E576C6"/>
</g>
<g id="Pants_3">
<path id="Pants_4" d="M2582.54 1331.13L2420.18 2057.21L2464.9 2068.63H2464.92L2516.98 2081.93L2517.24 2081.99L2535.26 2086.59C2535.26 2086.59 2617.97 1825.59 2690.8 1592.75C2708.52 1621.61 2728.48 1650.13 2750.94 1677.87C2910.52 1874.96 3008.16 1959.21 3008.16 1959.21L3022.68 1937.32L3022.72 1937.26L3057.62 1884.66L3082.86 1846.62C3082.86 1846.62 2864.34 1640.33 2766.02 1350.13C2783.3 1293.63 2795.28 1253.3 2798.36 1240.39C2815.98 1166.8 2816.34 1133.08 2816.34 1130.39H2627.42L2551.66 1130.39C2554.42 1178.35 2562.04 1249.67 2582.54 1331.13L2582.54 1331.13Z" fill="#19141E"/>
</g>
<g id="Overlay">
<path id="Mask" fill-rule="evenodd" clip-rule="evenodd" d="M2420.18 2057.21L2464.9 2068.63H2464.92L2516.98 2081.93L2517.24 2081.99L2535.26 2086.59C2535.26 2086.59 2617.98 1825.59 2690.8 1592.75C2719.22 1501.85 2746.12 1415.26 2766.02 1350.13C2783.3 1293.63 2795.28 1253.3 2798.36 1240.39C2815.98 1166.8 2816.34 1133.08 2816.34 1130.39H2627.42L2582.54 1331.13L2420.18 2057.21Z" fill="white" fill-opacity="0.1"/>
</g>
</g>
</g>
<g id="Man / Body / 5_2">
<g id="Group 25">
<g id="Hands">
<path id="Mask_2" fill-rule="evenodd" clip-rule="evenodd" d="M2487.67 1172.26C2487.67 1172.26 2514.61 1175.54 2519.74 1187.19C2534.41 1220.53 2504.02 1280.14 2504.02 1280.14C2504.02 1280.14 2516.89 1272.55 2519.45 1279.19C2520.6 1282.15 2523.18 1305.76 2474.94 1307.35C2469.82 1307.52 2457.49 1297.45 2457.49 1297.45C2457.49 1297.45 2466.48 1314.03 2452.72 1317.29C2452.72 1317.29 2430.55 1285.18 2430.21 1278.03C2429.87 1270.88 2436.99 1234.71 2440.84 1227.41C2444.68 1220.1 2487.67 1172.26 2487.67 1172.26ZM2851.99 1230.43C2856.66 1217.08 2860.8 1210 2860.8 1210L2931.14 1213.3C2938.28 1232.99 2939.06 1239.74 2940.8 1254.98C2940.88 1255.67 2940.96 1256.38 2941.04 1257.1C2942.64 1270.98 2942.75 1284.94 2937.32 1303.51C2933.83 1315.45 2930.11 1325.6 2928.17 1325.17C2923.28 1324.09 2923.1 1318.01 2923.1 1318.01L2925.4 1306.71L2926.44 1295.67C2926.44 1295.67 2909.09 1344.53 2907.62 1344.26C2902.42 1343.31 2901.59 1334.75 2901.59 1334.75C2901.59 1334.75 2896.15 1351.61 2893.42 1351C2886.45 1349.44 2887.11 1341.63 2887.11 1341.63C2887.11 1341.63 2884.91 1343.5 2883.22 1343.03C2876.92 1341.26 2877.11 1330.44 2877.22 1324.09C2877.23 1323.58 2877.24 1323.1 2877.24 1322.66C2877.24 1322.66 2880.03 1302.68 2879.46 1296.53C2876.56 1265.16 2871.55 1257.7 2868.8 1253.61C2868.54 1253.22 2868.3 1252.87 2868.09 1252.52C2863.78 1255.36 2862.18 1260.23 2860.49 1265.4C2859.26 1269.16 2857.97 1273.08 2855.55 1276.5C2848.2 1286.88 2827.68 1296.7 2839.15 1272.9C2845.52 1259.69 2847.1 1251.56 2848.57 1244.01C2849.44 1239.59 2850.26 1235.36 2851.99 1230.43Z" fill="#E576C6"/>
</g>
<path id="Stroke 4" opacity="0.150646" d="M2494.16 1215.34C2494.16 1215.34 2487.39 1240.06 2464.16 1247.76C2456.04 1250.45 2458.07 1282.25 2438.16 1278.45" stroke="black" stroke-width="3"/>
<g id="Shirt">
<path id="Shirt_2" fill-rule="evenodd" clip-rule="evenodd" d="M2739.76 793.076L2730.81 755.637L2691.89 758.043L2665.13 790.968L2647.73 760.747L2635.31 761.522L2631.45 796.477C2574.79 818.081 2564.91 839.215 2552.51 865.726C2551.18 868.577 2549.81 871.49 2548.36 874.472C2532.01 908.04 2551.97 1141.03 2551.97 1141.03L2797.38 1129.79C2797.38 1129.79 2764.13 795.606 2742.34 793.335C2741.48 793.245 2740.62 793.159 2739.76 793.076Z" fill="#EFEFEF"/>
</g>
<path id="Stroke 8" d="M2556.95 1141.43L2545.44 957.164" stroke="#12173A" stroke-width="5"/>
<g id="Coat">
<path id="Coat_2" fill-rule="evenodd" clip-rule="evenodd" d="M2850.99 1281.5L2868.46 1360.63L2737.11 1371.33C2737.11 1371.33 2725.83 992.618 2726.94 881.275C2727.45 830.288 2742.34 793.354 2742.34 793.354C2742.34 793.354 2800.72 810.433 2813.95 819.171C2845.13 839.758 2912.9 938.378 2924.96 990.51C2943.9 1072.35 2941.94 1213.81 2941.94 1213.81L2842.46 1209.14L2813.8 1055.41L2809.43 1094.76L2845.57 1257.53C2844.33 1261.59 2843.29 1264.65 2842.46 1266.72C2838.31 1277.09 2835.93 1283.13 2836.43 1285.38C2836.9 1287.47 2838.94 1288.73 2843.95 1286.18C2845.28 1285.5 2847.63 1283.94 2850.99 1281.5ZM2544.64 1209.16L2531.1 1237.23L2444.06 1189.08L2515.06 1011.13C2515.06 1011.13 2533.53 873.299 2544.66 854.896C2566.19 819.312 2631.02 796.653 2631.02 796.653C2631.02 796.653 2631 796.673 2631 796.693C2630.36 798.342 2629.84 807.891 2628.67 829.294C2627.89 843.763 2626.81 863.649 2625.19 890.174C2621.63 948.83 2587.78 1369.81 2587.78 1369.81L2540.96 1364.3L2544.64 1209.16Z" fill="#CE3D29"/>
</g>
<g id="Lapel">
<path id="Shape" fill-rule="evenodd" clip-rule="evenodd" d="M2787.67 909.178L2728.6 1033.94C2728.6 1033.94 2726.86 896.7 2727.67 863.681C2728.23 840.444 2742.34 793.354 2742.34 793.354L2765.79 812.668C2780.68 824.927 2784.51 846.067 2774.86 862.72L2774.55 863.257L2779.3 867.54C2791 878.08 2794.4 894.978 2787.67 909.178ZM2631.02 796.654L2614.52 1032.76L2571.45 916.55C2565.2 899.668 2570.23 880.696 2584.06 869.08L2585.89 867.539L2585.07 863.322C2581.98 847.474 2587.95 831.222 2600.58 821.08L2631.02 796.654Z" fill="#2F2F3D"/>
</g>
<path id="Stroke 23" opacity="0.197498" d="M2814.27 1057.93L2808.49 1029.22L2779.24 975.533" stroke="black" stroke-width="5"/>
</g>
</g>
</g>
</g>
</svg>
