<svg xmlns="http://www.w3.org/2000/svg" viewBox="0 0 393.54 225.91"><defs><style>.cls-1{fill:#4c5252;}.cls-2{fill:#5951a2;}.cls-3{fill:#6f7575;}</style></defs><g id="Layer_2" data-name="Layer 2"><g id="Layer_1-2" data-name="Layer 1"><path class="cls-1" d="M29.37,172.32a17.09,17.09,0,0,1-.8,5.34,12.83,12.83,0,0,1-2.29,4.19,10.32,10.32,0,0,1-3.62,2.73,11.24,11.24,0,0,1-4.79,1H7.2l-.92,8H0l1.83-16H19.4A3.14,3.14,0,0,0,22,176.39a4.6,4.6,0,0,0,1-3,3.29,3.29,0,0,0-.69-2.18,2.51,2.51,0,0,0-2-.81H2.65l5.13-8.15H20.59a9.29,9.29,0,0,1,3.77.73,7.46,7.46,0,0,1,2.74,2.06,9.14,9.14,0,0,1,1.69,3.18A13.52,13.52,0,0,1,29.37,172.32Z"/><path class="cls-1" d="M54.84,185.52l-5,8H30.2l3.63-31.31H57.44l-5,8.15H39.2l-.43,3.74H54.9l-4.39,7.11H37.94l-.48,4.26Z"/><path class="cls-1" d="M85,193.57H76.56L73,185.28h-9.7l-.94,8.29H56l1.83-16H75.59a4.09,4.09,0,0,0,1.51-.28,3.59,3.59,0,0,0,2.1-2.08,4.45,4.45,0,0,0,.32-1.71,3,3,0,0,0-.82-2.31,3.21,3.21,0,0,0-2.29-.77H58.66l5.06-8.15H76.84a12.72,12.72,0,0,1,3.24.43,7.64,7.64,0,0,1,3,1.52,8,8,0,0,1,2.22,2.92,11.1,11.1,0,0,1,.85,4.63,17,17,0,0,1-.47,4,13.86,13.86,0,0,1-1.35,3.46,9.87,9.87,0,0,1-2.08,2.62,7.06,7.06,0,0,1-2.69,1.5,16.64,16.64,0,0,1,1,1.54c.36.62.82,1.48,1.39,2.57Z"/><path class="cls-1" d="M113.74,162.26l-5,8.15H96.27l-.46,4.07h15.37l-4.7,7.62H94.92l-1.31,11.47H87.27l3.63-31.31Z"/><path class="cls-1" d="M136.93,185.52l-5,8H112.28l3.63-31.31h23.61l-5,8.15H121.28l-.43,3.74H137l-4.4,7.11H120l-.49,4.26Z"/><path class="cls-1" d="M165,185.52l-5,8H149.8a9.09,9.09,0,0,1-4.35-1.06,10.1,10.1,0,0,1-3.35-2.9,13.62,13.62,0,0,1-2.15-4.37,18.85,18.85,0,0,1-.77-5.48,21.33,21.33,0,0,1,1.13-7.06,17.87,17.87,0,0,1,3.05-5.55,13.85,13.85,0,0,1,4.52-3.6,12.17,12.17,0,0,1,5.52-1.29h14.3l-5,8.15H152.45a5.72,5.72,0,0,0-2.67.65,7.11,7.11,0,0,0-2.21,1.82,9.15,9.15,0,0,0-1.49,2.74,10.26,10.26,0,0,0-.55,3.44,8.42,8.42,0,0,0,.38,2.64,6,6,0,0,0,1.07,2,4.8,4.8,0,0,0,1.63,1.31,4.69,4.69,0,0,0,2.1.47Z"/><path class="cls-1" d="M195.28,162.26l-5.07,8.15H183l-2.68,23.16H174l2.65-23.16H167l5.06-8.15Z"/><path class="cls-1" d="M234.23,162.26l-5.07,8.15H221.9l-2.68,23.16h-6.31l2.65-23.16H206l5.07-8.15Z"/><path class="cls-1" d="M259.42,193.57H251l-3.59-8.29h-9.7l-1,8.29h-6.31l1.83-16H250a4,4,0,0,0,1.51-.28,3.69,3.69,0,0,0,1.25-.79,3.82,3.82,0,0,0,.85-1.29,4.27,4.27,0,0,0,.32-1.71,3,3,0,0,0-.82-2.31,3.19,3.19,0,0,0-2.29-.77H233.07l5.06-8.15h13.12a12.8,12.8,0,0,1,3.25.43,7.7,7.7,0,0,1,3,1.52,8.09,8.09,0,0,1,2.21,2.92,10.94,10.94,0,0,1,.85,4.63,16.54,16.54,0,0,1-.47,4,13.84,13.84,0,0,1-1.34,3.46,10.1,10.1,0,0,1-2.09,2.62,7,7,0,0,1-2.69,1.5,16.64,16.64,0,0,1,1,1.54c.36.62.82,1.48,1.39,2.57Z"/><path class="cls-1" d="M270.31,193.57l4.76-8h7a14.25,14.25,0,0,1,1.71.09c-.23-.56-.48-1.27-.77-2.13s-.55-1.66-.79-2.41l-2.72-8.28-11.95,20.78h-7.48l16.35-28.31a11,11,0,0,1,1.9-2.43,3.56,3.56,0,0,1,2.59-1.08,2.81,2.81,0,0,1,2.27,1,7.94,7.94,0,0,1,1.36,2.5L294,193.57Z"/><path class="cls-1" d="M324.24,175.55a21.65,21.65,0,0,1-1.13,7.07,18.78,18.78,0,0,1-3.08,5.7,14.78,14.78,0,0,1-4.54,3.84,11.39,11.39,0,0,1-5.52,1.41H296.3l2.26-19.52h6.31l-1.31,11.47h7.32a6.14,6.14,0,0,0,2.73-.61,6.55,6.55,0,0,0,2.2-1.73,8.81,8.81,0,0,0,1.48-2.69,10.51,10.51,0,0,0,.55-3.44,8.7,8.7,0,0,0-.39-2.67,6.69,6.69,0,0,0-1.06-2.1,4.73,4.73,0,0,0-1.65-1.38,4.56,4.56,0,0,0-2.12-.49H299l5-8.15h9.63a9.6,9.6,0,0,1,4.38,1,9.87,9.87,0,0,1,3.37,2.73,12.7,12.7,0,0,1,2.17,4.19A17.89,17.89,0,0,1,324.24,175.55Z"/><path class="cls-1" d="M331.87,193.57h-6.32l3.63-31.31h6.29Z"/><path class="cls-1" d="M356.42,194.08a2.32,2.32,0,0,1-1.17-.3,4,4,0,0,1-1.18-1.38l-10.52-17.22-2.11,18.39h-5.73l3-26a12.06,12.06,0,0,1,.58-2.67,5.86,5.86,0,0,1,1-1.82,3.76,3.76,0,0,1,1.23-1,3.11,3.11,0,0,1,1.38-.33,2.54,2.54,0,0,1,1.16.3,3.61,3.61,0,0,1,1.19,1.38l10.52,17.22,2.13-18.39h5.74l-3,25.93a11.5,11.5,0,0,1-.6,2.66,6.8,6.8,0,0,1-1,1.85,3.42,3.42,0,0,1-1.22,1.05A3,3,0,0,1,356.42,194.08Z"/><path class="cls-1" d="M378.54,174h13l-2.26,19.56h-14a9.08,9.08,0,0,1-4.34-1.06,10.13,10.13,0,0,1-3.36-2.9,14,14,0,0,1-2.15-4.37,18.85,18.85,0,0,1-.76-5.48,21.08,21.08,0,0,1,1.13-7.06,17.87,17.87,0,0,1,3-5.55,13.82,13.82,0,0,1,4.51-3.6,12.24,12.24,0,0,1,5.52-1.29h14.61l-5,8.15H378a5.66,5.66,0,0,0-2.67.65,7,7,0,0,0-2.21,1.82,9.34,9.34,0,0,0-1.51,2.77,10.17,10.17,0,0,0-.57,3.46,7.16,7.16,0,0,0,1.42,4.68,4.67,4.67,0,0,0,3.8,1.73H384l.51-4.54H373.93Z"/><path class="cls-2" d="M58.58,219.25l3-14.46h3l-3,14.46Z"/><path class="cls-2" d="M66.53,208.77h2.68l-.27,1.36a7.11,7.11,0,0,1,1.87-1.23,4.65,4.65,0,0,1,1.84-.37,2.79,2.79,0,0,1,2,.73,2.65,2.65,0,0,1,.74,2,12,12,0,0,1-.32,2.09l-1.23,5.93H71.05l1.24-5.95a13.44,13.44,0,0,0,.27-1.59,1.11,1.11,0,0,0-.32-.85,1.21,1.21,0,0,0-.89-.31,2.51,2.51,0,0,0-1.38.52,3.63,3.63,0,0,0-1.19,1.38,11.56,11.56,0,0,0-.71,2.5l-.9,4.3H64.34Z"/><path class="cls-2" d="M81.87,219.25H79.44l-2.1-10.48h2.78l.74,4.57c.2,1.23.32,2.06.36,2.46.06-.11.28-.53.69-1.27s.65-1.19.74-1.34l2.61-4.42h3Z"/><path class="cls-2" d="M98.07,214.89H91c0,.11,0,.19,0,.25a2.42,2.42,0,0,0,.59,1.69,1.92,1.92,0,0,0,1.46.64,2.43,2.43,0,0,0,2.2-1.46l2.53.42a5.3,5.3,0,0,1-2,2.3,5.15,5.15,0,0,1-2.77.76,4.6,4.6,0,0,1-3.43-1.33,4.84,4.84,0,0,1-1.33-3.54,6.43,6.43,0,0,1,1.2-3.83,5.36,5.36,0,0,1,4.64-2.26,4,4,0,0,1,3.06,1.18A4.64,4.64,0,0,1,98.26,213,8,8,0,0,1,98.07,214.89Zm-2.39-1.73c0-.12,0-.22,0-.29a2.53,2.53,0,0,0-.52-1.74,1.79,1.79,0,0,0-1.4-.58,2.24,2.24,0,0,0-1.58.66,3.58,3.58,0,0,0-.94,1.95Z"/><path class="cls-2" d="M98.74,216.32l2.74-.44a2.58,2.58,0,0,0,.91,1.23,2.63,2.63,0,0,0,1.48.36,2.49,2.49,0,0,0,1.54-.43.88.88,0,0,0,.41-.72.75.75,0,0,0-.21-.52,3.7,3.7,0,0,0-1.17-.53,12.56,12.56,0,0,1-3.18-1.34,2.44,2.44,0,0,1-1-2,2.86,2.86,0,0,1,.92-2.14,6.63,6.63,0,0,1,6.9-.52,3.29,3.29,0,0,1,1.31,2l-2.62.45a1.58,1.58,0,0,0-.67-.86,2.9,2.9,0,0,0-1.52-.38,2.18,2.18,0,0,0-1.27.29.86.86,0,0,0-.39.68.78.78,0,0,0,.39.66,11.29,11.29,0,0,0,1.59.55,8.39,8.39,0,0,1,2.77,1.18,2.48,2.48,0,0,1,1,2,3.35,3.35,0,0,1-1.25,2.59,5.23,5.23,0,0,1-3.54,1.09,6.26,6.26,0,0,1-3.5-.83A4.11,4.11,0,0,1,98.74,216.32Z"/><path class="cls-2" d="M111,210.87l.44-2.1h1.38l.34-1.67,3.25-2-.76,3.63h1.73l-.44,2.1h-1.73l-.92,4.39a12.8,12.8,0,0,0-.25,1.36.64.64,0,0,0,.21.51,1.18,1.18,0,0,0,.75.18c.12,0,.44,0,.94-.07l-.45,2.1a7.41,7.41,0,0,1-1.5.15,3.32,3.32,0,0,1-2.18-.58,2,2,0,0,1-.68-1.6,14.52,14.52,0,0,1,.37-2.23l.88-4.21Z"/><path class="cls-2" d="M131,219.25h-2.82l-.52-12.09-2.3,12.09h-2.68l3-14.46h4.24l.44,10.13,4.93-10.13h4.29l-3,14.46h-2.72l2.85-12Z"/><path class="cls-2" d="M139.91,214.9a6.48,6.48,0,0,1,1.64-4.64,5.66,5.66,0,0,1,4.32-1.73,4.92,4.92,0,0,1,3.61,1.27,4.6,4.6,0,0,1,1.31,3.44,6.48,6.48,0,0,1-1.63,4.4,5.54,5.54,0,0,1-4.36,1.85,5.65,5.65,0,0,1-2.62-.59,3.81,3.81,0,0,1-1.71-1.68A5,5,0,0,1,139.91,214.9Zm8.07-2a2.23,2.23,0,0,0-.59-1.61,2,2,0,0,0-1.51-.6,2.5,2.5,0,0,0-1.63.56,3.68,3.68,0,0,0-1.11,1.65,5.88,5.88,0,0,0-.39,2,2.5,2.5,0,0,0,.61,1.78,2,2,0,0,0,1.54.66,2.39,2.39,0,0,0,1.95-1A5.35,5.35,0,0,0,148,212.87Z"/><path class="cls-2" d="M154.06,208.77h2.68l-.27,1.36a7,7,0,0,1,1.88-1.23,4.58,4.58,0,0,1,1.84-.37,2.76,2.76,0,0,1,2,.73,2.65,2.65,0,0,1,.75,2,12.3,12.3,0,0,1-.33,2.09l-1.23,5.93h-2.83l1.24-5.95a14.63,14.63,0,0,0,.28-1.59,1.15,1.15,0,0,0-.32-.85,1.25,1.25,0,0,0-.9-.31,2.51,2.51,0,0,0-1.38.52,3.71,3.71,0,0,0-1.19,1.38,11.56,11.56,0,0,0-.71,2.5l-.9,4.3h-2.83Z"/><path class="cls-2" d="M174.37,214.89h-7.1c0,.11,0,.19,0,.25a2.37,2.37,0,0,0,.59,1.69,1.9,1.9,0,0,0,1.46.64,2.43,2.43,0,0,0,2.2-1.46l2.53.42a5.3,5.3,0,0,1-2,2.3,5.15,5.15,0,0,1-2.77.76,4.6,4.6,0,0,1-3.43-1.33,4.8,4.8,0,0,1-1.33-3.54,6.43,6.43,0,0,1,1.2-3.83,5.36,5.36,0,0,1,4.64-2.26,4,4,0,0,1,3.06,1.18,4.68,4.68,0,0,1,1.13,3.33A8,8,0,0,1,174.37,214.89ZM172,213.16c0-.12,0-.22,0-.29a2.58,2.58,0,0,0-.52-1.74,1.79,1.79,0,0,0-1.4-.58,2.24,2.24,0,0,0-1.58.66,3.58,3.58,0,0,0-.94,1.95Z"/><path class="cls-2" d="M176.28,208.77h2.82l.71,5.22q.27,2,.3,2.82a22.18,22.18,0,0,1,1.51-3.39l2.51-4.65h3l-6.47,11.5a16.45,16.45,0,0,1-1.26,2,3.19,3.19,0,0,1-2.66,1.23,7.58,7.58,0,0,1-2-.32l.25-2.11a3.5,3.5,0,0,0,1,.15c.87,0,1.58-.66,2.14-2Z"/><path class="cls-2" d="M192.14,219.25l3-14.46h3l-3,14.46Z"/><path class="cls-2" d="M200.08,208.77h2.69l-.28,1.36a7.14,7.14,0,0,1,1.88-1.23,4.58,4.58,0,0,1,1.84-.37,2.75,2.75,0,0,1,2,.73,2.65,2.65,0,0,1,.75,2,12.3,12.3,0,0,1-.33,2.09l-1.23,5.93H204.6l1.24-5.95a12.31,12.31,0,0,0,.28-1.59,1.15,1.15,0,0,0-.32-.85,1.21,1.21,0,0,0-.89-.31,2.45,2.45,0,0,0-1.38.52,3.65,3.65,0,0,0-1.2,1.38,12.19,12.19,0,0,0-.71,2.5l-.89,4.3H197.9Z"/><path class="cls-2" d="M223.87,211.52h6.47l-1.3,6.21a11.3,11.3,0,0,1-2.81,1.25,11.46,11.46,0,0,1-3.39.51,6.2,6.2,0,0,1-4.11-1.21,6,6,0,0,1-1.95-4.8,10.06,10.06,0,0,1,.84-4,8.24,8.24,0,0,1,2.86-3.61,7.5,7.5,0,0,1,4.36-1.28,6.4,6.4,0,0,1,4,1.17,5.64,5.64,0,0,1,2,3.39l-2.77.31a3.42,3.42,0,0,0-1.18-1.84,3.22,3.22,0,0,0-2-.62,4.76,4.76,0,0,0-4.53,3.06,8.61,8.61,0,0,0-.68,3.43,3.8,3.8,0,0,0,.83,2.69,3.15,3.15,0,0,0,2.42.88,7.59,7.59,0,0,0,2-.27,9.24,9.24,0,0,0,1.73-.65l.45-2.15h-3.69Z"/><path class="cls-2" d="M231.93,214.9a6.48,6.48,0,0,1,1.64-4.64,5.64,5.64,0,0,1,4.31-1.73,4.93,4.93,0,0,1,3.62,1.27,4.6,4.6,0,0,1,1.31,3.44,6.48,6.48,0,0,1-1.63,4.4,5.54,5.54,0,0,1-4.36,1.85,5.65,5.65,0,0,1-2.62-.59,3.76,3.76,0,0,1-1.71-1.68A4.91,4.91,0,0,1,231.93,214.9Zm8.06-2a2.23,2.23,0,0,0-.58-1.61,2,2,0,0,0-1.52-.6,2.49,2.49,0,0,0-1.62.56,3.68,3.68,0,0,0-1.11,1.65,5.88,5.88,0,0,0-.39,2,2.5,2.5,0,0,0,.61,1.78,2,2,0,0,0,1.54.66,2.42,2.42,0,0,0,2-1A5.35,5.35,0,0,0,240,212.87Z"/><path class="cls-2" d="M244.26,214.9a6.44,6.44,0,0,1,1.65-4.64,5.64,5.64,0,0,1,4.31-1.73,5,5,0,0,1,3.62,1.27,4.59,4.59,0,0,1,1.3,3.44,6.43,6.43,0,0,1-1.63,4.4,5.5,5.5,0,0,1-4.35,1.85,5.72,5.72,0,0,1-2.63-.59,3.79,3.79,0,0,1-1.7-1.68A4.92,4.92,0,0,1,244.26,214.9Zm8.07-2a2.19,2.19,0,0,0-.59-1.61,2,2,0,0,0-1.51-.6,2.54,2.54,0,0,0-1.63.56,3.66,3.66,0,0,0-1.1,1.65,5.91,5.91,0,0,0-.4,2,2.5,2.5,0,0,0,.62,1.78,2,2,0,0,0,1.53.66,2.42,2.42,0,0,0,2-1A5.35,5.35,0,0,0,252.33,212.87Z"/><path class="cls-2" d="M265.86,219.25h-2.68l.24-1.14a5.26,5.26,0,0,1-1.52,1.06,4.09,4.09,0,0,1-1.68.32,3.42,3.42,0,0,1-2.64-1.11,4.73,4.73,0,0,1-1-3.28,7.71,7.71,0,0,1,1.42-4.54,4.37,4.37,0,0,1,3.76-2,3.47,3.47,0,0,1,3.16,1.67l1.14-5.41h2.83ZM259.32,215a2.53,2.53,0,0,0,.57,1.75,1.81,1.81,0,0,0,1.4.63,2.21,2.21,0,0,0,1.43-.53,3.64,3.64,0,0,0,1.07-1.61,6.14,6.14,0,0,0,.39-2.08,2.65,2.65,0,0,0-.61-1.83,1.8,1.8,0,0,0-1.41-.7,2.34,2.34,0,0,0-2,1.38A5.87,5.87,0,0,0,259.32,215Z"/><path class="cls-2" d="M284.13,212.79h-5.6l-1.35,6.46h-3l3-14.46h3L279,210.37h5.59l1.17-5.58h3l-3,14.46h-3Z"/><path class="cls-2" d="M292.71,211.74,290,211.5a4.23,4.23,0,0,1,1.65-2.19,5.6,5.6,0,0,1,3.13-.78,4.57,4.57,0,0,1,3,.81,2.48,2.48,0,0,1,1,2,7.19,7.19,0,0,1-.08,1c-.06.36-.25,1.29-.59,2.8a14,14,0,0,0-.41,2.63,5.36,5.36,0,0,0,.23,1.49h-2.75a5.93,5.93,0,0,1-.21-1.19,4.2,4.2,0,0,1-1.43,1.06,3.79,3.79,0,0,1-1.62.37,2.89,2.89,0,0,1-2.15-.85,3,3,0,0,1-.85-2.2,3.18,3.18,0,0,1,.93-2.39,5.44,5.44,0,0,1,3.33-1.09,12.93,12.93,0,0,0,2.7-.4,3.49,3.49,0,0,0,.18-.95,1,1,0,0,0-.37-.76,1.66,1.66,0,0,0-1.08-.3,2,2,0,0,0-1.2.31A1.59,1.59,0,0,0,292.71,211.74Zm2.7,2.62a5.18,5.18,0,0,1-.68.13,6.41,6.41,0,0,0-2.78.75,1.16,1.16,0,0,0-.47,1,1.1,1.1,0,0,0,.36.83,1.27,1.27,0,0,0,.93.34,2.45,2.45,0,0,0,1.21-.31,2.13,2.13,0,0,0,.85-.8,5.45,5.45,0,0,0,.5-1.52Z"/><path class="cls-2" d="M302.18,208.77h2.68l-.27,1.36a7,7,0,0,1,1.88-1.23,4.58,4.58,0,0,1,1.84-.37,2.75,2.75,0,0,1,2,.73,2.65,2.65,0,0,1,.75,2,12.3,12.3,0,0,1-.33,2.09l-1.23,5.93H306.7l1.24-5.95a14.63,14.63,0,0,0,.28-1.59,1.15,1.15,0,0,0-.32-.85,1.25,1.25,0,0,0-.9-.31,2.51,2.51,0,0,0-1.38.52,3.71,3.71,0,0,0-1.19,1.38,11.56,11.56,0,0,0-.71,2.5l-.9,4.3H300Z"/><path class="cls-2" d="M322,219.25h-2.68l.24-1.14a5.13,5.13,0,0,1-1.52,1.06,4.06,4.06,0,0,1-1.68.32,3.39,3.39,0,0,1-2.63-1.11,4.69,4.69,0,0,1-1-3.28,7.78,7.78,0,0,1,1.42-4.54,4.37,4.37,0,0,1,3.76-2A3.49,3.49,0,0,1,321,210.2l1.13-5.41H325ZM315.43,215a2.52,2.52,0,0,0,.56,1.75,1.82,1.82,0,0,0,1.4.63,2.21,2.21,0,0,0,1.43-.53,3.56,3.56,0,0,0,1.07-1.61,6.17,6.17,0,0,0,.4-2.08,2.69,2.69,0,0,0-.61-1.83,1.83,1.83,0,0,0-1.41-.7,2.36,2.36,0,0,0-2,1.38A5.87,5.87,0,0,0,315.43,215Z"/><path class="cls-2" d="M324.26,216.32l2.74-.44a2.71,2.71,0,0,0,.91,1.23,2.66,2.66,0,0,0,1.48.36,2.54,2.54,0,0,0,1.55-.43.87.87,0,0,0,.4-.72.79.79,0,0,0-.2-.52,3.79,3.79,0,0,0-1.18-.53,12.25,12.25,0,0,1-3.17-1.34,2.45,2.45,0,0,1-1-2,2.87,2.87,0,0,1,.93-2.14,6.61,6.61,0,0,1,6.89-.52,3.25,3.25,0,0,1,1.31,2l-2.61.45a1.62,1.62,0,0,0-.67-.86,2.93,2.93,0,0,0-1.52-.38,2.22,2.22,0,0,0-1.28.29.86.86,0,0,0-.39.68.77.77,0,0,0,.4.66,10.32,10.32,0,0,0,1.59.55,8.39,8.39,0,0,1,2.77,1.18,2.5,2.5,0,0,1,1,2A3.35,3.35,0,0,1,333,218.4a5.2,5.2,0,0,1-3.53,1.09,6.32,6.32,0,0,1-3.51-.83A4.2,4.2,0,0,1,324.26,216.32Z"/><polygon class="cls-2" points="334.16 52.02 261.63 52.63 279.24 71.32 179.35 131.52 162.92 107.3 72.72 154.81 154.49 123.25 173.53 154.81 291.12 92.23 298.42 115.14 334.16 52.02"/><polygon class="cls-2" points="152.21 108.43 164.22 102.11 170.71 111.67 170.71 23.85 152.21 23.85 152.21 108.43"/><polygon class="cls-1" points="125 122.76 143.5 113.02 143.5 46.71 125 46.71 125 122.76"/><polygon class="cls-1" points="179.41 124.5 180.53 126.15 197.91 115.67 197.91 48.34 179.41 48.34 179.41 124.5"/><polygon class="cls-1" points="233.82 0 233.82 94.03 252.32 82.88 252.32 0 233.82 0"/><polygon class="cls-2" points="206.62 110.43 225.12 99.28 225.12 27.2 206.62 27.2 206.62 110.43"/><path class="cls-3" d="M356.5,207s-5.44,12.2,6.1,18.91c0,0-10.87-1.65-9-17.21,0,0-6.29-.29-10.26,2.89,0,0-.76,6.87,3,10,0,0-5-1.5-5.11-11.58A22,22,0,0,1,356.5,207Z"/><path class="cls-1" d="M353.27,218.63c-.56-1.41-1.71-1.89-3.61-1.9h0l-1.23-3.1a4,4,0,0,1,1.33-.22.59.59,0,0,0,.61-.6h0a.59.59,0,0,0-.58-.58,4.86,4.86,0,0,0-1.68.31l-.47-1.2a.52.52,0,0,0-.67-.29h0a.53.53,0,0,0-.3.68l.5,1.25a2.76,2.76,0,0,0-1.37,3.45c.52,1.3,1.69,1.66,3.4,1.68l1.38,3.48a4.53,4.53,0,0,1-1.75.25.6.6,0,0,0-.62.62h0a.6.6,0,0,0,.56.58,5.41,5.41,0,0,0,2.12-.34l.38.93.13.34a.49.49,0,0,0,.62.27l.09,0h0a.5.5,0,0,0,.28-.63h0l-.14-.34-.4-1A2.91,2.91,0,0,0,353.27,218.63Zm-6.2-2.92a1.39,1.39,0,0,1,.52-1.66l1,2.62C347.77,216.56,347.31,216.31,347.07,215.71Zm4.34,5.42-1.18-3a1.86,1.86,0,0,1,1.72,1.11A1.59,1.59,0,0,1,351.41,221.13Z"/><path class="cls-2" d="M362.76,206a22,22,0,0,0-15.45-1.93,27.35,27.35,0,0,0-.74,2.8,20.65,20.65,0,0,1,2.15-.49,1.44,1.44,0,0,0,.07-.18c4.77-1.76,10.65.49,10.65.49-6.64,14.19,3.16,19.18,3.16,19.18C353.76,215.91,362.76,206,362.76,206Z"/><path class="cls-1" d="M369,207.1a22,22,0,0,0-14.06-6.69,24.52,24.52,0,0,0-1.59,2.45c.69,0,1.43.09,2.19.19l.14-.15c5.08-.18,9.95,3.81,9.95,3.81-10.76,11.38-3,19.2-3,19.2C357.36,213.64,369,207.1,369,207.1Z"/></g></g></svg>