<svg width="33" height="33" viewBox="0 0 33 33" fill="none" xmlns="http://www.w3.org/2000/svg">
<circle cx="16.5" cy="16.5" r="15" stroke="#191919" stroke-width="3"/>
<path d="M23.0999 25.575V23.925C23.0999 23.0498 22.7522 22.2104 22.1334 21.5915C21.5145 20.9727 20.6751 20.625 19.7999 20.625H13.1999C12.3247 20.625 11.4853 20.9727 10.8664 21.5915C10.2476 22.2104 9.8999 23.0498 9.8999 23.925V25.575" stroke="#191919" stroke-width="2" stroke-linecap="round" stroke-linejoin="round"/>
<path d="M16.4998 17.325C18.3224 17.325 19.7998 15.8475 19.7998 14.025C19.7998 12.2025 18.3224 10.725 16.4998 10.725C14.6773 10.725 13.1998 12.2025 13.1998 14.025C13.1998 15.8475 14.6773 17.325 16.4998 17.325Z" stroke="#191919" stroke-width="2" stroke-linecap="round" stroke-linejoin="round"/>
</svg>
